<svg width="251" height="251" viewBox="0 0 251 251" fill="none" xmlns="http://www.w3.org/2000/svg">
<path d="M91.69 0H73.35V250.05H91.69V0Z" fill="black"/>
<path d="M55.01 0H36.67V250.05H55.01V0Z" fill="black"/>
<path d="M18.34 0H0V250.05H18.34V0Z" fill="black"/>
<path d="M250.05 0H110.02V18.34H250.05V0Z" fill="black"/>
<path d="M250.05 36.6699H110.02V55.0099H250.05V36.6699Z" fill="black"/>
<path d="M250.05 73.3501H110.02V91.6901H250.05V73.3501Z" fill="black"/>
<path d="M128.39 250.05H110.06C110.06 172.86 172.86 110.05 250.06 110.05V128.38C217.802 128.414 186.874 141.244 164.064 164.054C141.254 186.864 128.424 217.791 128.39 250.05V250.05Z" fill="black"/>
<path d="M163.19 250.05H144.85C144.882 222.159 155.976 195.419 175.697 175.698C195.419 155.976 222.159 144.882 250.05 144.85V163.19C227.025 163.227 204.953 172.39 188.672 188.672C172.39 204.953 163.227 227.025 163.19 250.05V250.05Z" fill="black"/>
<path d="M198 250.05H179.64C179.664 231.384 187.09 213.488 200.289 200.289C213.488 187.09 231.383 179.664 250.05 179.64V198C236.252 198.021 223.025 203.512 213.268 213.269C203.512 223.025 198.021 236.252 198 250.05Z" fill="black"/>
<path d="M232.77 250.05H214.43C214.441 240.606 218.197 231.552 224.875 224.875C231.552 218.197 240.606 214.441 250.05 214.43V232.77C245.469 232.775 241.077 234.598 237.837 237.837C234.598 241.077 232.775 245.469 232.77 250.05Z" fill="black"/>
</svg>
